<svg width="429" height="22" viewBox="0 0 429 22" fill="none" xmlns="http://www.w3.org/2000/svg">
<line x1="0.262573" y1="11.3035" x2="184.538" y2="11.3035" stroke="#C2C2C2" stroke-width="1.00973"/>
<line x1="244.616" y1="11.3035" x2="428.891" y2="11.3035" stroke="#C2C2C2" stroke-width="1.00973"/>
<path d="M209.783 15.8004C208.869 15.8004 208.035 15.5883 207.281 15.1642C206.527 14.7307 205.928 14.1323 205.486 13.3689C205.052 12.5962 204.835 11.7292 204.835 10.7679C204.835 9.80663 205.052 8.94433 205.486 8.18097C205.928 7.4082 206.527 6.80977 207.281 6.38568C208.035 5.95217 208.869 5.73542 209.783 5.73542C210.706 5.73542 211.545 5.95217 212.299 6.38568C213.053 6.80977 213.647 7.40348 214.08 8.16684C214.514 8.93019 214.731 9.79721 214.731 10.7679C214.731 11.7386 214.514 12.6056 214.08 13.3689C213.647 14.1323 213.053 14.7307 212.299 15.1642C211.545 15.5883 210.706 15.8004 209.783 15.8004ZM209.783 14.6836C210.471 14.6836 211.088 14.5234 211.635 14.203C212.191 13.8826 212.624 13.4255 212.935 12.8318C213.256 12.2381 213.416 11.5501 213.416 10.7679C213.416 9.97627 213.256 9.28831 212.935 8.70401C212.624 8.11029 212.196 7.65322 211.649 7.3328C211.102 7.01238 210.48 6.85217 209.783 6.85217C209.086 6.85217 208.464 7.01238 207.917 7.3328C207.37 7.65322 206.937 8.11029 206.616 8.70401C206.305 9.28831 206.15 9.97627 206.15 10.7679C206.15 11.5501 206.305 12.2381 206.616 12.8318C206.937 13.4255 207.37 13.8826 207.917 14.203C208.473 14.5234 209.095 14.6836 209.783 14.6836ZM221.617 15.7014L219.27 11.6726H217.715V15.7014H216.429V5.84851H219.609C220.354 5.84851 220.981 5.97573 221.49 6.23018C222.008 6.48463 222.394 6.82861 222.649 7.26212C222.903 7.69563 223.03 8.1904 223.03 8.74642C223.03 9.42496 222.832 10.0234 222.437 10.5417C222.05 11.06 221.466 11.404 220.684 11.5737L223.158 15.7014H221.617ZM217.715 10.6407H219.609C220.307 10.6407 220.83 10.471 221.179 10.1318C221.527 9.78307 221.702 9.32129 221.702 8.74642C221.702 8.16213 221.527 7.70977 221.179 7.38935C220.839 7.06893 220.316 6.90872 219.609 6.90872H217.715V10.6407Z" fill="#C2C2C2"/>
</svg>
